<svg width="128" height="17" viewBox="0 0 128 17" fill="none" xmlns="http://www.w3.org/2000/svg">
<path d="M20.4588 17L12.0195 3.30824L3.4408 17H0L10.8804 0H13.1355L23.9461 17H20.4588Z" fill="white"/>
<path d="M25.4636 17V0H28.5789V14.4886H41.8539V17H25.4636Z" fill="white"/>
<path d="M47.1046 10.7216V17H44.0125V0H57.427C58.3569 0 59.1474 0.10464 59.7984 0.313921C60.4493 0.507103 60.9763 0.788827 61.3793 1.15909C61.7977 1.51326 62.1 1.93987 62.286 2.43892C62.4719 2.93797 62.5649 3.49337 62.5649 4.10511V6.61648C62.5649 7.22822 62.4719 7.78362 62.286 8.28267C62.1 8.78172 61.7977 9.21638 61.3793 9.58665C60.9763 9.94081 60.4493 10.2225 59.7984 10.4318C59.1474 10.625 58.3569 10.7216 57.427 10.7216H47.1046ZM59.4729 4.08097C59.4729 3.03456 58.7909 2.51136 57.427 2.51136H47.1046V8.21023H57.427C58.7909 8.21023 59.4729 7.68703 59.4729 6.64063V4.08097Z" fill="white"/>
<path d="M81.2016 17V9.27273H67.8104V17H64.7184V0H67.8104V6.76136H81.2016V0H84.2937V17H81.2016Z" fill="white"/>
<path d="M106.256 17L97.8169 3.30824L89.2382 17H85.7974L96.6778 0H98.9329L109.743 17H106.256Z" fill="white"/>
<path d="M111.168 17V14.4886H122.862C124.226 14.4886 124.908 13.9654 124.908 12.919V9.87642C124.908 8.83002 124.226 8.30682 122.862 8.30682H111.168V0H127.465V2.51136H114.26V5.79545H122.862C123.792 5.79545 124.582 5.9001 125.233 6.10938C125.884 6.30256 126.411 6.58428 126.814 6.95455C127.233 7.30871 127.535 7.73532 127.721 8.23438C127.907 8.73343 128 9.28883 128 9.90057V12.8949C128 13.5066 127.907 14.062 127.721 14.5611C127.535 15.0601 127.233 15.4948 126.814 15.8651C126.411 16.2192 125.884 16.5009 125.233 16.7102C124.582 16.9034 123.792 17 122.862 17H111.168Z" fill="white"/>
</svg>
